# xmcd
#
# Track frame offsets:
#	150
#	18063
#	51409
#	89211
#	112825
#	137043
#	179587
#	214375
#	239546
#	283757
#	301574
#
# Disc length: 4304
#
# Revision: 1
# Processed by: cddbd v1.5.1PL0 Copyright (c) Steve Scherf et al.
# Submitted via: CDex 1.50beta8
# Normalized: r0:TDELIM( - )
#
DISCID=9e10ce0b
DTITLE=Various Artist - Blues Best Hits
DYEAR=2000
DGENRE=Blues
TTITLE0=Janis Joplin - Summertime
TTITLE1=Led Zeppelin - Since I`ve been Loving You
TTITLE2=Livin` Blues - Blue Breeze
TTITLE3=Kingdom Come - What Love Can Be
TTITLE4=Ginderella - Long Gold Weather
TTITLE5=Led Zeppelin - Tear for One
TTITLE6=Gary Moore - As The Years Go Pasing by
TTITLE7=Livin` Blues - Shylina
TTITLE8=Toto - High Price of Hate
TTITLE9=Mountain and Leslie West - It`s a Man`s Man`s Man`s World
TTITLE10=ZZ Top - Blue Jean Blues
EXTD=YEAR: 2000
EXTT0=
EXTT1=
EXTT2=
EXTT3=
EXTT4=
EXTT5=
EXTT6=
EXTT7=
EXTT8=
EXTT9=
EXTT10=
PLAYORDER=
